<svg width="1920" height="1080" viewBox="0 0 1920 1080" fill="none" xmlns="http://www.w3.org/2000/svg">
<g clip-path="url(#clip0_2_48)">
<path d="M29.92 0V1080M60.92 0V1080M91.92 0V1080M122.92 0V1080M153.92 0V1080M184.92 0V1080M215.92 0V1080M246.92 0V1080M277.92 0V1080M308.92 0V1080M339.92 0V1080M370.92 0V1080M401.92 0V1080M432.92 0V1080M463.92 0V1080M494.92 0V1080M525.92 0V1080M556.92 0V1080M587.92 0V1080M618.92 0V1080M649.92 0V1080M680.92 0V1080M711.92 0V1080M742.92 0V1080M773.92 0V1080M804.92 0V1080M835.92 0V1080M866.92 0V1080M897.92 0V1080M928.92 0V1080M959.92 0V1080M990.92 0V1080M1021.92 0V1080M1052.92 0V1080M1083.92 0V1080M1114.92 0V1080M1145.92 0V1080M1176.92 0V1080M1207.92 0V1080M1238.92 0V1080M1269.92 0V1080M1300.92 0V1080M1331.92 0V1080M1362.92 0V1080M1393.92 0V1080M1424.92 0V1080M1455.92 0V1080M1486.92 0V1080M1517.92 0V1080M1548.92 0V1080M1579.92 0V1080M1610.92 0V1080M1641.92 0V1080M1672.92 0V1080M1703.92 0V1080M1734.92 0V1080M1765.92 0V1080M1796.92 0V1080M1827.92 0V1080M1858.92 0V1080M1889.92 0V1080M0 13H1920M0 44H1920M0 75H1920M0 106H1920M0 137H1920M0 168H1920M0 199H1920M0 230H1920M0 261H1920M0 292H1920M0 323H1920M0 354H1920M0 385H1920M0 416H1920M0 447H1920M0 478H1920M0 509H1920M0 540H1920M0 571H1920M0 602H1920M0 633H1920M0 664H1920M0 695H1920M0 726H1920M0 757H1920M0 788H1920M0 819H1920M0 850H1920M0 881H1920M0 912H1920M0 943H1920M0 974H1920M0 1005H1920M0 1036H1920M0 1067H1920" stroke="#FF8D28" stroke-opacity="0.3" stroke-width="2" stroke-miterlimit="10"/>
</g>
<defs>
<clipPath id="clip0_2_48">
<rect width="1920" height="1080" fill="white"/>
</clipPath>
</defs>
</svg>
